<svg width="12" height="15" viewBox="0 0 12 15" fill="none" xmlns="http://www.w3.org/2000/svg">
<path d="M12 1.40691V2.33946C12 2.46399 11.9548 2.58341 11.8743 2.67146C11.7938 2.7595 11.6847 2.80897 11.5709 2.80897H0.429098C0.315294 2.80897 0.206151 2.7595 0.12568 2.67146C0.0452083 2.58341 0 2.46399 0 2.33946V1.40691C0 1.28238 0.0452083 1.16296 0.12568 1.07491C0.206151 0.986865 0.315294 0.937399 0.429098 0.937399H3.6407L3.89285 0.388835C3.95035 0.276343 4.033 0.181659 4.13306 0.113652C4.23313 0.0456453 4.34733 0.00654033 4.46498 0H7.5306C7.64855 0.00689402 7.76303 0.0461146 7.86352 0.114058C7.96401 0.182001 8.04728 0.276487 8.10568 0.388835L8.3593 0.937399H11.5739C11.6871 0.938251 11.7955 0.988093 11.8754 1.07605C11.9552 1.16401 12 1.28294 12 1.40691ZM0.858196 3.75121H11.1433V13.5931C11.1433 13.9662 11.0078 14.3241 10.7667 14.5879C10.5255 14.8518 10.1985 15 9.85746 15H2.14254C1.80152 15 1.47447 14.8518 1.23333 14.5879C0.992191 14.3241 0.856721 13.9662 0.856721 13.5931L0.858196 3.75121ZM3.00074 12.6654C3.00715 12.7849 3.05507 12.8973 3.1347 12.9794C3.21433 13.0616 3.31965 13.1074 3.4291 13.1074C3.53855 13.1074 3.64386 13.0616 3.72349 12.9794C3.80312 12.8973 3.85105 12.7849 3.85746 12.6654V6.09551C3.85105 5.97596 3.80312 5.86361 3.72349 5.78145C3.64386 5.69928 3.53855 5.65352 3.4291 5.65352C3.31965 5.65352 3.21433 5.69928 3.1347 5.78145C3.05507 5.86361 3.00715 5.97596 3.00074 6.09551V12.6654ZM5.57238 12.6654C5.57879 12.7849 5.62671 12.8973 5.70634 12.9794C5.78597 13.0616 5.89129 13.1074 6.00074 13.1074C6.11019 13.1074 6.2155 13.0616 6.29513 12.9794C6.37476 12.8973 6.42268 12.7849 6.4291 12.6654V6.09551C6.42268 5.97596 6.37476 5.86361 6.29513 5.78145C6.2155 5.69928 6.11019 5.65352 6.00074 5.65352C5.89129 5.65352 5.78597 5.69928 5.70634 5.78145C5.62671 5.86361 5.57879 5.97596 5.57238 6.09551V12.6654ZM8.14402 12.6654C8.15043 12.7849 8.19835 12.8973 8.27798 12.9794C8.35761 13.0616 8.46292 13.1074 8.57238 13.1074C8.68183 13.1074 8.78714 13.0616 8.86677 12.9794C8.9464 12.8973 8.99432 12.7849 9.00074 12.6654V6.09551C8.99432 5.97596 8.9464 5.86361 8.86677 5.78145C8.78714 5.69928 8.68183 5.65352 8.57238 5.65352C8.46292 5.65352 8.35761 5.69928 8.27798 5.78145C8.19835 5.86361 8.15043 5.97596 8.14402 6.09551V12.6654Z" fill="#94A0AC"/>
</svg>
